<?xml version="1.0" encoding="UTF-8"?>
<svg width="200px" height="200px" viewBox="0 0 200 200" version="1.1" xmlns="http://www.w3.org/2000/svg" xmlns:xlink="http://www.w3.org/1999/xlink">
    <!-- Generator: Sketch 52.5 (67469) - http://www.bohemiancoding.com/sketch -->
    <title>icon-cross</title>
    <desc>Created with Sketch.</desc>
    <g id="icon-cross" stroke="none" stroke-width="1" fill="none" fill-rule="evenodd">
        <path d="M100.25,70.5515152 L163.07895,7.72256506 C171.27996,-0.478445072 184.576425,-0.478445072 192.777435,7.72256506 C200.978445,15.9235752 200.978445,29.2200397 192.777435,37.4210499 L129.948485,100.25 L191.923882,162.225397 C200.124892,170.426407 200.124892,183.722871 191.923882,191.923882 C183.722871,200.124892 170.426407,200.124892 162.225397,191.923882 L100.25,129.948485 L37.9210499,192.277435 C29.7200397,200.478445 16.4235752,200.478445 8.22256506,192.277435 C0.0215549284,184.076425 0.0215549284,170.77996 8.22256506,162.57895 L70.5515152,100.25 L8.07611845,37.7746033 C-0.124891681,29.5735931 -0.124891681,16.2771286 8.07611845,8.07611845 C16.2771286,-0.124891681 29.5735931,-0.124891681 37.7746033,8.07611845 L100.25,70.5515152 Z" id="Combined-Shape" fill="#FFFFFF"></path>
    </g>
</svg>